<svg xmlns="http://www.w3.org/2000/svg" version="1.1" xmlns:xlink="http://www.w3.org/1999/xlink" viewBox="0 0 200 200"><g><g fill="#000000" transform="matrix(6.9952263374485595,0,0,6.9952263374485595,12.948003452707226,150.43749618420384)" stroke="#cdf564" stroke-width="1.05"><path d="M10.79-2.54L10.79 0L0.87 0L0.87-2.15L5.44-6.95Q7.13-8.88 7.13-10.01L7.13-10.01Q7.13-10.93 6.73-11.41Q6.33-11.88 5.57-11.88L5.57-11.88Q4.81-11.88 4.35-11.25Q3.88-10.61 3.88-9.65L3.88-9.65L0.58-9.65Q0.58-10.96 1.23-12.07Q1.88-13.17 3.05-13.80Q4.21-14.42 5.64-14.42L5.64-14.42Q7.95-14.42 9.19-13.36Q10.44-12.29 10.44-10.30L10.44-10.30Q10.44-9.46 10.13-8.67Q9.81-7.87 9.16-7.00Q8.50-6.12 7.03-4.66L7.03-4.66L5.20-2.54L10.79-2.54ZM15.63-14.22L17.96-9.49L20.28-14.22L24.20-14.22L20.22-7.17L24.31 0L20.35 0L17.96-4.81L15.57 0L11.62 0L15.69-7.17L11.73-14.22L15.63-14.22Z"></path></g></g></svg>